<svg width="512" height="512" viewBox="0 0 512 512" xmlns="http://www.w3.org/2000/svg">
  <defs>
    <!-- Dark blue gradient background matching app theme -->
    <linearGradient id="bgGrad" x1="0%" y1="0%" x2="100%" y2="100%">
      <stop offset="0%" stop-color="#2C5F6F" />
      <stop offset="50%" stop-color="#3d7a8f" />
      <stop offset="100%" stop-color="#5a8a9a" />
    </linearGradient>
    
    <!-- Light gradient for chat bubbles -->
    <linearGradient id="bubbleGrad" x1="0%" y1="0%" x2="100%" y2="100%">
      <stop offset="0%" stop-color="#ffffff" />
      <stop offset="100%" stop-color="#e8f0f5" />
    </linearGradient>
    
    <!-- AI analysis gradient -->
    <linearGradient id="aiGrad" x1="0%" y1="0%" x2="100%" y2="100%">
      <stop offset="0%" stop-color="#5a8a9a" />
      <stop offset="100%" stop-color="#2C5F6F" />
    </linearGradient>
    
    <!-- Shadow for depth -->
    <filter id="softShadow" x="-50%" y="-50%" width="200%" height="200%">
      <feGaussianBlur in="SourceAlpha" stdDeviation="8"/>
      <feOffset dx="0" dy="4" result="offsetblur"/>
      <feComponentTransfer>
        <feFuncA type="linear" slope="0.3"/>
      </feComponentTransfer>
      <feMerge>
        <feMergeNode/>
        <feMergeNode in="SourceGraphic"/>
      </feMerge>
    </filter>
    
    <!-- Glow effect for AI icon -->
    <filter id="glow">
      <feGaussianBlur stdDeviation="4" result="coloredBlur"/>
      <feMerge>
        <feMergeNode in="coloredBlur"/>
        <feMergeNode in="SourceGraphic"/>
      </feMerge>
    </filter>
  </defs>
  
  <!-- Rounded background with gradient -->
  <rect width="512" height="512" rx="128" fill="url(#bgGrad)" />
  
  <!-- Left chat bubble (larger, represents conversation) -->
  <path d="M 90 160 Q 70 160 70 180 L 70 280 Q 70 300 90 300 L 210 300 Q 230 300 230 280 L 230 180 Q 230 160 210 160 Z" 
        fill="url(#bubbleGrad)" 
        filter="url(#softShadow)"
        rx="20" />
  
  <!-- Text lines in left bubble -->
  <line x1="100" y1="200" x2="200" y2="200" stroke="#2C5F6F" stroke-width="12" stroke-linecap="round" opacity="0.8" />
  <line x1="100" y1="235" x2="180" y2="235" stroke="#2C5F6F" stroke-width="12" stroke-linecap="round" opacity="0.6" />
  <line x1="100" y1="270" x2="160" y2="270" stroke="#2C5F6F" stroke-width="12" stroke-linecap="round" opacity="0.4" />
  
  <!-- Central AI/analysis icon - modern brain/insight symbol -->
  <g transform="translate(256, 240)" filter="url(#glow)">
    <!-- Main brain/analysis shape -->
    <circle cx="0" cy="0" r="50" fill="url(#aiGrad)" opacity="0.95" />
    <circle cx="0" cy="0" r="42" fill="#ffffff" opacity="0.2" />
    
    <!-- AI sparkle/insight rays -->
    <g opacity="0.9">
      <path d="M 0 -50 L 5 -35 L 20 -35 L 8 -25 L 12 -5 L 0 -15 L -12 -5 L -8 -25 L -20 -35 L -5 -35 Z" 
            fill="#ffffff" />
      <circle cx="0" cy="0" r="12" fill="#ffffff" />
      <circle cx="0" cy="0" r="6" fill="#2C5F6F" />
    </g>
  </g>
  
  <!-- Right chat bubble (smaller, represents analysis result) -->
  <path d="M 282 260 Q 262 260 262 280 L 262 340 Q 262 360 282 360 L 402 360 Q 422 360 422 340 L 422 280 Q 422 260 402 260 Z" 
        fill="url(#bubbleGrad)" 
        opacity="0.9" 
        filter="url(#softShadow)"
        rx="20" />
  
  <!-- Analysis result lines in right bubble -->
  <line x1="292" y1="300" x2="392" y2="300" stroke="#2C5F6F" stroke-width="10" stroke-linecap="round" opacity="0.7" />
  <line x1="292" y1="330" x2="372" y2="330" stroke="#2C5F6F" stroke-width="10" stroke-linecap="round" opacity="0.5" />
  
  <!-- Connecting flow lines (representing analysis process) -->
  <path d="M 230 240 Q 240 240 250 240" 
        stroke="#ffffff" 
        stroke-width="6" 
        fill="none" 
        opacity="0.6" 
        stroke-linecap="round" />
  <path d="M 282 300 Q 272 300 262 240" 
        stroke="#ffffff" 
        stroke-width="6" 
        fill="none" 
        opacity="0.6" 
        stroke-linecap="round" />
  
  <!-- Small decorative dots representing data points -->
  <circle cx="240" cy="220" r="4" fill="#ffffff" opacity="0.5" />
  <circle cx="250" cy="260" r="4" fill="#ffffff" opacity="0.5" />
  <circle cx="270" cy="280" r="4" fill="#ffffff" opacity="0.5" />
</svg>
